<?xml version="1.0" encoding="utf-8"?>
<!-- Generator: Adobe Illustrator 16.0.4, SVG Export Plug-In . SVG Version: 6.00 Build 0)  -->
<!DOCTYPE svg PUBLIC "-//W3C//DTD SVG 1.1//EN" "http://www.w3.org/Graphics/SVG/1.1/DTD/svg11.dtd">
<svg version="1.1" id="Layer_1" xmlns="http://www.w3.org/2000/svg" xmlns:xlink="http://www.w3.org/1999/xlink" x="0px" y="0px"
	 width="18px" height="18px" viewBox="0 0 18 18" enable-background="new 0 0 18 18" xml:space="preserve">
<path fill="#FFFFFF" d="M18.001,3.418c-0.67,0.294-1.383,0.488-2.126,0.583c0.766-0.457,1.35-1.175,1.624-2.04
	c-0.713,0.425-1.501,0.726-2.34,0.894c-0.679-0.721-1.644-1.168-2.697-1.168c-2.043,0-3.688,1.658-3.688,3.691
	c0,0.293,0.024,0.574,0.085,0.842C5.79,6.07,3.075,4.6,1.252,2.359C0.935,2.912,0.747,3.544,0.747,4.225
	c0,1.278,0.658,2.411,1.64,3.067C1.794,7.28,1.212,7.108,0.72,6.837c0,0.012,0,0.025,0,0.04c0,1.794,1.279,3.283,2.957,3.626
	c-0.301,0.084-0.629,0.123-0.969,0.123c-0.236,0-0.475-0.015-0.698-0.063c0.479,1.463,1.835,2.537,3.448,2.571
	c-1.256,0.982-2.85,1.574-4.576,1.574c-0.303,0-0.593-0.015-0.883-0.051c1.635,1.054,3.572,1.655,5.662,1.655
	c6.791,0,10.504-5.625,10.504-10.501c0-0.163-0.006-0.32-0.015-0.477C16.884,4.814,17.499,4.165,18.001,3.418z"/>
</svg>
