<svg xmlns="http://www.w3.org/2000/svg" xmlns:xlink="http://www.w3.org/1999/xlink" id="Layer_1" width="25" height="25" x="0" y="0" enable-background="new 0 0 25 25" version="1.1" viewBox="0 0 25 25" xml:space="preserve"><g id="Layer_1_1_"><g><path fill="#BECBD2" d="M14.277,5.418V0.266H4.383c-1.024,0-1.855,0.83-1.855,1.854v21.023C2.528,24.168,3.359,25,4.383,25H20.46 c1.024,0,1.855-0.832,1.855-1.857V8.304h-5.153C15.571,8.304,14.277,7.01,14.277,5.418z M6.239,6.449h5.951v1.236H6.239V6.449z M18.605,20.053H6.239v-1.238h12.367V20.053z M18.605,16.961H6.239v-1.238h12.367V16.961z M18.605,13.869H6.239v-1.236h12.367 V13.869z M18.605,10.776H6.239V9.541h12.367V10.776z"/><path fill="#BECBD2" d="M15.514,5.418c0,0.909,0.739,1.648,1.648,1.648h5.31L15.514,0.11V5.418z"/></g></g></svg>