<svg xmlns="http://www.w3.org/2000/svg" xmlns:xlink="http://www.w3.org/1999/xlink" id="Layer_1" width="18" height="18" x="0" y="0" enable-background="new 0 0 18 18" version="1.1" viewBox="0 0 18 18" xml:space="preserve"><path fill="#FFF" d="M9,0.042C4.06,0.042,0.042,4.061,0.042,9c0,4.939,4.018,8.959,8.958,8.959c1.426,0,2.844-0.344,4.102-0.992	c0.4-0.207,0.558-0.699,0.351-1.098c-0.205-0.4-0.697-0.557-1.097-0.35C11.311,16.057,10.184,16.33,9,16.33	c-4.042,0-7.33-3.289-7.33-7.33S4.958,1.671,9,1.671c4.041,0,7.33,3.288,7.33,7.329c0,1.238-0.307,2.436-0.891,3.508	c-0.715-0.566-1.791-1.709-1.791-3.475V5.455c0-0.45-0.363-0.814-0.814-0.814c-0.449,0-0.814,0.365-0.814,0.814V5.49	C11.209,4.791,10.154,4.365,9,4.365C6.44,4.365,4.365,6.44,4.365,9c0,2.561,2.076,4.635,4.635,4.635	c1.521,0,2.865-0.734,3.711-1.867c0.938,1.73,2.512,2.56,2.605,2.607c0.36,0.186,0.807,0.074,1.039-0.26	c1.049-1.504,1.604-3.273,1.604-5.115C17.959,4.061,13.941,0.042,9,0.042z M9,12.006c-1.658,0-3.006-1.348-3.006-3.006	S7.342,5.994,9,5.994S12.006,7.342,12.006,9S10.658,12.006,9,12.006z"/></svg>