<svg xmlns="http://www.w3.org/2000/svg" xmlns:xlink="http://www.w3.org/1999/xlink" id="Layer_1" width="18" height="18" x="0" y="0" enable-background="new 0 0 18 18" version="1.1" viewBox="0 0 18 18" xml:space="preserve"><g><path fill="#FFF" d="M6.168,17.948c0.015-0.017,0.035-0.021,0.055-0.022c0.028-0.005,0.057-0.01,0.085-0.021 c0.199-0.059,0.317-0.195,0.368-0.396c0.014-0.056,0.016-0.112,0.016-0.168c-0.002-0.265-0.002-0.526-0.004-0.786 c-0.003-0.365-0.008-0.729-0.012-1.095c0-0.024,0.003-0.046-0.006-0.076c-0.019,0.009-0.036,0.009-0.055,0.013 c-0.226,0.047-0.454,0.084-0.686,0.103c-0.209,0.021-0.416,0.024-0.627,0.017c-0.379-0.021-0.75-0.093-1.102-0.236 c-0.548-0.227-0.974-0.598-1.272-1.106c-0.061-0.106-0.111-0.219-0.156-0.334c-0.166-0.435-0.387-0.838-0.687-1.192 c-0.134-0.158-0.284-0.308-0.456-0.428c-0.035-0.023-0.072-0.053-0.11-0.072c-0.13-0.08-0.249-0.168-0.356-0.275 c-0.03-0.034-0.06-0.071-0.085-0.107C1.06,11.739,1.049,11.71,1.04,11.68c-0.018-0.053-0.002-0.097,0.034-0.138 c0.029-0.026,0.064-0.048,0.099-0.058c0.075-0.035,0.156-0.049,0.236-0.057c0.208-0.021,0.412,0.018,0.61,0.08 c0.266,0.085,0.505,0.227,0.718,0.407c0.247,0.203,0.451,0.442,0.613,0.718c0.14,0.24,0.306,0.461,0.507,0.649 c0.309,0.295,0.673,0.483,1.092,0.565c0.206,0.035,0.414,0.045,0.623,0.028c0.387-0.024,0.753-0.129,1.107-0.278 c0.01-0.004,0.019-0.012,0.03-0.014c0.02-0.046,0.02-0.1,0.03-0.146c0.048-0.258,0.118-0.504,0.226-0.735 c0.113-0.241,0.259-0.463,0.456-0.646c0.006-0.008,0.012-0.015,0.019-0.023c-0.01-0.002-0.017-0.006-0.023-0.006 c-0.419-0.049-0.835-0.117-1.245-0.213c-0.468-0.113-0.924-0.266-1.356-0.473c-0.396-0.193-0.759-0.429-1.085-0.729 c-0.45-0.402-0.791-0.895-1.035-1.446c-0.155-0.349-0.267-0.711-0.349-1.08c-0.046-0.209-0.083-0.418-0.11-0.629 C2.22,7.314,2.208,7.173,2.196,7.031c-0.023-0.273-0.03-0.546-0.026-0.82c0.013-1.144,0.388-2.149,1.147-3.007 c0.014-0.015,0.028-0.031,0.041-0.045C3.356,3.144,3.353,3.133,3.348,3.12C3.254,2.874,3.196,2.621,3.161,2.361 C3.13,2.119,3.121,1.874,3.131,1.63C3.156,1.109,3.27,0.61,3.458,0.124C3.46,0.117,3.462,0.108,3.464,0.102 c0.008-0.021,0.024-0.029,0.044-0.03c0.044-0.006,0.087-0.014,0.129-0.015c0.185-0.011,0.367,0.009,0.547,0.044 c0.344,0.067,0.67,0.183,0.989,0.323c0.42,0.184,0.817,0.409,1.203,0.655C6.46,1.132,6.542,1.187,6.625,1.243 c0.028,0.02,0.054,0.024,0.086,0.015c0.173-0.042,0.345-0.086,0.518-0.126c0.214-0.048,0.428-0.09,0.646-0.119 c0.176-0.026,0.352-0.051,0.529-0.07C8.584,0.923,8.766,0.91,8.947,0.9c0.196-0.01,0.393-0.017,0.59-0.021 c0.209-0.003,0.42,0.005,0.632,0.018c0.142,0.009,0.284,0.019,0.427,0.032c0.161,0.015,0.325,0.036,0.484,0.056 c0.203,0.025,0.402,0.061,0.607,0.101c0.244,0.046,0.484,0.104,0.728,0.168c0.012,0.003,0.022,0.004,0.03,0.008 c0.019,0.006,0.035,0.002,0.054-0.009c0.035-0.025,0.071-0.049,0.106-0.073c0.369-0.243,0.748-0.467,1.146-0.659 c0.302-0.146,0.61-0.271,0.937-0.36c0.178-0.048,0.357-0.085,0.541-0.101c0.129-0.011,0.254-0.015,0.377,0.007 c0.012,0.003,0.021,0.004,0.029,0.005c0.018,0.005,0.025,0.013,0.031,0.028c0.006,0.011,0.01,0.023,0.016,0.034 c0.115,0.303,0.203,0.613,0.262,0.932c0.059,0.324,0.078,0.65,0.062,0.977c-0.016,0.352-0.074,0.696-0.195,1.028 c-0.012,0.027-0.02,0.056-0.029,0.084c0.02,0.024,0.043,0.048,0.059,0.071c0.396,0.445,0.689,0.945,0.885,1.506 c0.09,0.264,0.152,0.535,0.195,0.808c0.047,0.312,0.055,0.625,0.049,0.937c-0.002,0.146-0.008,0.291-0.016,0.436 c-0.012,0.16-0.031,0.322-0.045,0.481c-0.021,0.214-0.061,0.423-0.104,0.634c-0.099,0.46-0.24,0.91-0.455,1.335 c-0.39,0.778-0.967,1.378-1.719,1.808c-0.375,0.211-0.771,0.372-1.182,0.499c-0.315,0.096-0.635,0.166-0.959,0.225 c-0.256,0.047-0.516,0.082-0.771,0.113c-0.01,0-0.018,0.003-0.021,0.003c-0.009,0.015-0.005,0.019,0.002,0.022 c0.312,0.287,0.495,0.648,0.612,1.048c0.062,0.212,0.103,0.423,0.123,0.64c0.017,0.149,0.022,0.312,0.022,0.471 c0,0.576-0.002,1.162-0.004,1.742c-0.004,0.477-0.006,0.944-0.009,1.42c0,0.056,0.003,0.111,0.019,0.164 c0.058,0.226,0.199,0.359,0.429,0.408c0.023,0.002,0.045,0.008,0.062,0.022C10.691,17.948,8.43,17.948,6.168,17.948z"/></g></svg>