<svg xmlns="http://www.w3.org/2000/svg" xmlns:xlink="http://www.w3.org/1999/xlink" id="Layer_1" width="18" height="18" x="0" y="0" enable-background="new 0 0 18 18" version="1.1" viewBox="0 0 18 18" xml:space="preserve"><path fill="#FFF" d="M9.475,14.459c0-0.152-0.016-0.297-0.054-0.438c-0.033-0.145-0.062-0.27-0.097-0.389	c-0.036-0.119-0.104-0.244-0.192-0.375c-0.088-0.131-0.161-0.24-0.226-0.326c-0.063-0.092-0.161-0.197-0.286-0.32	c-0.131-0.125-0.228-0.213-0.295-0.275c-0.077-0.064-0.192-0.154-0.35-0.281c-0.166-0.119-0.273-0.203-0.333-0.24	c-0.064-0.047-0.187-0.131-0.366-0.254C7.105,11.441,7,11.361,6.95,11.338c-0.112-0.018-0.298-0.025-0.537-0.025	c-0.393,0-0.776,0.027-1.148,0.076c-0.371,0.053-0.768,0.139-1.163,0.271c-0.406,0.125-0.756,0.295-1.071,0.494	c-0.296,0.205-0.541,0.477-0.736,0.809c-0.201,0.346-0.287,0.732-0.287,1.166c0,0.488,0.112,0.924,0.379,1.309	c0.259,0.391,0.588,0.688,1.002,0.91c0.414,0.217,0.847,0.385,1.307,0.49c0.448,0.107,0.913,0.164,1.376,0.164	c0.416,0,0.826-0.045,1.206-0.133c0.39-0.096,0.756-0.232,1.091-0.424c0.347-0.191,0.61-0.457,0.812-0.797	C9.373,15.311,9.475,14.916,9.475,14.459z M8.183,5.137c0-0.436-0.062-0.891-0.184-1.378c-0.122-0.489-0.29-0.96-0.512-1.412	c-0.215-0.456-0.525-0.831-0.913-1.13C6.195,0.924,5.766,0.773,5.285,0.773c-0.673,0-1.184,0.254-1.558,0.748	c-0.371,0.5-0.551,1.096-0.551,1.786c0,0.341,0.044,0.692,0.121,1.069c0.084,0.375,0.215,0.752,0.385,1.125	c0.174,0.373,0.372,0.717,0.604,1.012c0.238,0.301,0.515,0.543,0.847,0.734c0.329,0.181,0.684,0.279,1.059,0.279	c0.697,0,1.198-0.217,1.511-0.654C8.021,6.436,8.183,5.859,8.183,5.137z M6.755,0h4.733l-1.461,0.855H8.562	C9.078,1.18,9.475,1.626,9.754,2.212c0.277,0.586,0.419,1.193,0.419,1.831c0,0.532-0.084,1.009-0.245,1.421	C9.766,5.877,9.562,6.217,9.324,6.462C9.09,6.721,8.846,6.949,8.611,7.161C8.367,7.375,8.169,7.596,8.009,7.826	C7.831,8.053,7.755,8.293,7.755,8.555c0,0.188,0.055,0.369,0.173,0.549C8.051,9.29,8.209,9.461,8.399,9.625	c0.194,0.164,0.4,0.338,0.639,0.521c0.224,0.178,0.454,0.381,0.687,0.6c0.231,0.219,0.445,0.455,0.627,0.711	c0.199,0.259,0.357,0.566,0.467,0.918c0.117,0.359,0.18,0.742,0.18,1.158c0,1.148-0.5,2.166-1.516,3.049	C8.393,17.523,6.871,18,4.938,18c-0.416,0-0.855-0.039-1.295-0.111c-0.436-0.07-0.878-0.193-1.315-0.363	c-0.44-0.166-0.833-0.377-1.179-0.625c-0.33-0.246-0.61-0.566-0.823-0.961c-0.224-0.397-0.327-0.834-0.327-1.314	c0-0.438,0.131-0.925,0.398-1.459c0.225-0.467,0.582-0.857,1.04-1.195C1.9,11.634,2.418,11.378,3,11.198	c0.582-0.175,1.146-0.304,1.683-0.388c0.536-0.082,1.071-0.131,1.622-0.146c-0.468-0.604-0.698-1.137-0.698-1.613	c0-0.082,0.008-0.172,0.028-0.252C5.649,8.713,5.66,8.649,5.692,8.59c0.021-0.059,0.045-0.141,0.081-0.236	c0.041-0.096,0.064-0.176,0.073-0.231C5.557,8.16,5.312,8.176,5.091,8.176c-1.069,0-1.999-0.354-2.763-1.062	C1.564,6.406,1.182,5.522,1.182,4.459c0-1.015,0.342-1.92,1.027-2.719c0.676-0.793,1.519-1.301,2.525-1.523	C5.411,0.068,6.091,0,6.755,0z M18.001,2.766V4.15h-2.776v2.772h-1.388V4.149h-2.756V2.766h2.756V0h1.388v2.766H18.001z"/></svg>