<?xml version="1.0" encoding="utf-8"?>
<!-- Generator: Adobe Illustrator 16.0.4, SVG Export Plug-In . SVG Version: 6.00 Build 0)  -->
<!DOCTYPE svg PUBLIC "-//W3C//DTD SVG 1.1//EN" "http://www.w3.org/Graphics/SVG/1.1/DTD/svg11.dtd">
<svg version="1.1" id="Layer_1" xmlns="http://www.w3.org/2000/svg" xmlns:xlink="http://www.w3.org/1999/xlink" x="0px" y="0px"
	 width="18px" height="18px" viewBox="0 0 18 18" enable-background="new 0 0 18 18" xml:space="preserve">
<path fill="#FFFFFF" d="M4.075,2.047c0,1.062-0.779,1.919-2.069,1.919c-1.229,0-2.007-0.856-2.007-1.919
	c0-1.092,0.807-1.922,2.053-1.922C3.296,0.125,4.05,0.956,4.075,2.047z M0.097,17.873V5.485h3.846v12.388H0.097z M6.252,9.442
	c0-1.551-0.054-2.842-0.106-3.957H9.49l0.184,1.732h0.07c0.508-0.816,1.752-2.005,3.826-2.005c2.521,0,4.432,1.699,4.432,5.347
	v7.315h-3.854v-6.863c0-1.6-0.553-2.683-1.947-2.683c-1.061,0-1.703,0.728-1.975,1.438c-0.106,0.26-0.129,0.615-0.129,0.967v7.143
	H6.252V9.442z"/>
</svg>
