<?xml version="1.0" encoding="utf-8"?>
<!-- Generator: Adobe Illustrator 16.0.4, SVG Export Plug-In . SVG Version: 6.00 Build 0)  -->
<!DOCTYPE svg PUBLIC "-//W3C//DTD SVG 1.1//EN" "http://www.w3.org/Graphics/SVG/1.1/DTD/svg11.dtd">
<svg version="1.1" id="Layer_1" xmlns="http://www.w3.org/2000/svg" xmlns:xlink="http://www.w3.org/1999/xlink" x="0px" y="0px"
	 width="320px" height="150px" viewBox="0 0 320 150" enable-background="new 0 0 320 150" xml:space="preserve">
<g>
	<path fill-rule="evenodd" clip-rule="evenodd" d="M212.223,21.819c-25.199,25.14-50.398,50.28-76.781,76.601
		c3.402,0,5.285,0,7.168,0c26.324,0,52.648,0.052,78.97-0.067c3.254-0.015,5.588,0.881,7.85,3.242
		c8.719,9.104,17.628,18.027,26.665,27.223c-63.981,0-128.097,0-193.1,0c1.226-1.565,2.046-2.867,3.106-3.93
		c33.777-33.829,67.568-67.645,101.411-101.409c1.223-1.222,2.957-2.712,4.475-2.736c13.266-0.215,26.535-0.124,39.803-0.124
		C211.934,21.019,212.078,21.419,212.223,21.819z"/>
	<path fill-rule="evenodd" clip-rule="evenodd" d="M120.781,64.395C109.122,75.924,98.48,86.409,87.881,96.938
		c-9.806,9.741-19.463,19.635-29.437,29.198c-1.797,1.724-4.791,3.013-7.269,3.077c-12.1,0.312-24.211,0.142-37.525,0.142
		c1.451-2.306,2.111-3.937,3.255-5.086c19.142-19.24,38.321-38.441,57.583-57.561c1.169-1.16,3.083-2.193,4.665-2.214
		C92.467,64.319,105.784,64.395,120.781,64.395z"/>
	<path fill-rule="evenodd" clip-rule="evenodd" d="M306.349,129.188c-14.043,0-27.336,0.076-40.625-0.1
		c-1.594-0.021-3.52-1.045-4.697-2.207c-12.91-12.73-25.708-25.571-38.503-38.416c-0.861-0.864-1.447-2.001-2.896-4.055
		c4.008,0,6.898,0,9.787,0c8.484,0,16.978,0.259,25.446-0.099c4.848-0.204,8.328,1.178,11.748,4.724
		C279.489,102.399,292.696,115.449,306.349,129.188z"/>
</g>
</svg>
