<svg xmlns="http://www.w3.org/2000/svg" xmlns:xlink="http://www.w3.org/1999/xlink" id="Layer_1" width="320" height="150" x="0" y="0" enable-background="new 0 0 320 150" version="1.1" viewBox="0 0 320 150" xml:space="preserve"><g><path fill="#FFF" d="M253.782,132.338c-5.595,0-10.667-0.139-15.727,0.056c-2.755,0.106-3.165-1.036-2.852-3.39 c0.581-4.37,0.957-8.769,1.433-13.297c-49.085,0-97.983,0-147.15,0c0.483,4.78,0.834,9.273,1.429,13.734 c0.316,2.389-0.393,3.182-2.832,3.138c-6.683-0.123-13.371-0.026-20.058-0.016c-0.919,0-1.839,0-3.043,0 c0.488,4.62,0.921,8.902,1.397,13.179c0.438,3.936,0.391,4.077-3.416,4.095C42.726,149.919,22.487,149.976,2.25,150 c-0.757,0-1.914-0.247-2.165-0.739c-0.269-0.53,0.148-1.599,0.558-2.246c4.128-6.521,8.27-13.029,12.524-19.466 c0.9-1.362,0.98-2.415,0.268-3.849c-2.637-5.31-5.173-10.672-7.722-16.024c-1.328-2.789-1.054-3.285,2.047-3.3 c7.524-0.036,15.053-0.053,22.578,0.065c1.92,0.028,2.625-0.597,2.877-2.474c0.567-4.199,1.487-8.35,2.017-12.554 c0.266-2.139,1.29-2.56,3.184-2.532c6.293,0.076,12.591,0.028,19.251,0.028c0.718-4.276,1.46-8.606,2.171-12.945 c0.684-4.168,0.673-4.211,4.82-4.216c39.452-0.035,78.898-0.058,118.35-0.08c31.266-0.018,62.533-0.024,93.799-0.048 c3.814-0.002,3.866,0.066,3.222,3.803c-0.732,4.252-1.405,8.511-2.153,13.088c5.469,0,10.629-0.019,15.79,0.008 c3.714,0.02,3.73,0.059,3.156,3.612c-0.707,4.366-1.426,8.729-2.231,13.669c3.994,0,7.793-0.003,11.59,0 c3.763,0.004,7.528,0,11.294,0.02c2.593,0.014,3.033,0.788,1.593,3.054c-3.983,6.273-7.949,12.565-12.087,18.738 c-1.333,1.984-1.322,3.515-0.217,5.617c2.627,4.995,4.965,10.146,7.362,15.26c1.147,2.441,0.818,2.971-1.928,2.978 c-19.305,0.046-38.611,0.046-57.918,0.096c-2.017,0.007-2.919-0.505-2.521-2.812C252.555,142.136,253.078,137.471,253.782,132.338z M55.719,112.974c71.923,0,143.602,0,215.343,0c2.288-13.739,4.53-27.185,6.798-40.804c-71.852,0-143.476,0-215.342,0 C60.238,85.852,57.983,99.388,55.719,112.974z M82.872,130.113c0.062-0.178,0.124-0.354,0.188-0.536 c-0.72-0.376-1.429-0.777-2.161-1.127c-7.733-3.671-15.496-7.285-23.2-11.02c-5.787-2.804-4.921-1.098-3.905-7.656 c1.031-6.675,2.182-13.335,3.345-20.384c-5.746,0-11.185,0.109-16.617-0.051c-2.218-0.067-3.089,0.554-3.425,2.832 c-1.14,7.731-2.538,15.426-3.814,23.136c-0.809,4.872-1.577,9.751-2.392,14.806C48.464,130.113,65.667,130.113,82.872,130.113z M3.289,147.365c18.827,0,37.225,0,55.622,0c-7.61-4.16-15.306-7.85-23.038-11.47c-7.761-3.632-7.763-3.596-6.344-12.026 c0.931-5.543,1.819-11.095,2.771-16.911c-8.173,0-15.994,0-24.22,0c2.642,5.524,5.062,10.804,7.693,15.979 c1.001,1.971,1.094,3.445-0.22,5.395C11.4,134.483,7.49,140.801,3.289,147.365z M259.315,146.563 c0.044,0.127,0.09,0.255,0.135,0.38c17.242,0,34.482,0,52.193,0c-2.391-5.002-4.364-9.779-6.902-14.239 c-1.939-3.407-1.645-5.96,0.625-9.116c3.918-5.442,7.316-11.251,11.176-17.282c-7.761,0-15.025,0-22.386,0 c-1.218,7.247-2.604,14.268-3.503,21.353c-0.423,3.339-1.891,5.025-4.882,6.371C276.874,138.027,268.123,142.36,259.315,146.563z M242.883,129.325c0.018,0.198,0.038,0.396,0.058,0.592c0.45,0,0.901,0.001,1.351,0c13.896-0.017,27.789-0.07,41.687-0.003 c1.807,0.01,1.931-0.938,2.143-2.225c1.265-7.7,2.581-15.386,3.857-23.084c0.851-5.142,1.661-10.291,2.51-15.558 c-5.895,0-11.41,0-17.066,0c-1.307,7.819-2.681,15.495-3.82,23.205c-0.303,2.05-1.182,3.051-2.995,3.895 C261.329,120.465,252.117,124.921,242.883,129.325z"/></g><text fill="#FFF" font-family="'Lato-LightItalic'" font-size="31.662" transform="matrix(1 0 0 1 104.5146 51.4629)">Loading...</text><text fill="#FFF" font-family="'Lato-LightItalic'" font-size="16.962" transform="matrix(1 0 0 1 144.9658 139.166)">2014</text><text fill="#FFF" font-family="'Lato-HeavyItalic'" font-size="36.185" transform="matrix(1 0 0 1 90.6978 103.4785)">eneff.com</text></svg>